<?xml version="1.0" encoding="utf-8"?>
<!-- Generator: Adobe Illustrator 24.3.0, SVG Export Plug-In . SVG Version: 6.00 Build 0)  -->
<svg version="1.1" id="logo" xmlns="http://www.w3.org/2000/svg" xmlns:xlink="http://www.w3.org/1999/xlink" x="0px" y="0px"
	 viewBox="0 0 123.8 124.1" style="enable-background:new 0 0 123.8 124.1;" xml:space="preserve">
<style type="text/css">
	.st0{fill:none;stroke:#EEE8E1;stroke-width:3.0264;stroke-miterlimit:10;}
	.st1{fill:#EEE8E1;}
	.st2{fill:none;stroke:#EEE8E1;stroke-width:4.237;stroke-miterlimit:10;}
	.st3{fill:#24292F;stroke:#24292F;stroke-width:4.3695;stroke-miterlimit:10;}
	.st4{fill:none;}
</style>
<g id="mtn">
	<g id="mtn_badge_combined_1_">
		<path class="st0" d="M2.8,72.3c0,0,9-4.9,13.1-8.8c1.9,0.4,1.8,0.2,7.5-2.8c5.8-3.1,13.5-5.2,18.5-9.8c2,0.9,3.1,1.4,4,0.7
			c1-0.7,5.3-5.5,8.6-9.9c3.4-4.3,3.2-4.2,5.1-4.5c1.9-0.4,2.8-3.7,4.5-6.5c1.9,0.4,0.7,0.8,4.4,6.8c3.7,6,3.7,4.7,4.6,5.8
			c0.4,2.2,1.3,4.3,2.6,6c2,2.5,9.1,10.6,13.7,12.9c4.5,2.2,7.8,3.5,10.4,6.3 M121.1,66.2c-3.2-0.2-10.8-4.7-11.9-5.8
			s-1-3.1-3.7-4.5c-2.7-1.4-5-5.6-6.3-7.6c-1.4-1.9-2-2.5-3.7-2.5c-1.6,2.5-2.7,4.4-4.9,4.9c-1.7,3.1-8.6,5.9-8.6,5.9"/>
		<path class="st1" d="M120.8,71.4c-0.8-0.1-4.7-1-9-2c-4.4-1-9.8-2.4-11-4.4c-1.2-1.9-1.9-5.8-3.1-8c-1.2-2.2,0.2-5.5-0.9-6.2
			c-1.2-0.6-0.7-1.7-2.4-0.5c-1.7,1.1-3.7,0.5-2.1-0.2c1.6-0.8,2-3.4,2.8-4.3c0.8-0.9,2.1,0.5,3.8,1.9c1.7,1.4,2.2,6.5,5.6,7.6
			c3.4,1.1,3.7,4.3,4.7,5.3c1,1,12.1,5.5,12.1,5.5S121.6,71.6,120.8,71.4z M119.8,74.3c0,0-11.9,3.2-17,0.2
			c-5.5-4.2-9.1-6.3-13.3-8.9c-6.6-2.8-11.7-7.9-15.2-13.2c-1.7-3.1-3.5-6-5.6-8.8c-1-0.6-1.8-2.5-2.5-5.3c-0.4-0.9-1-1.8-1.7-2.5
			c-0.9-0.8-0.5,0.1-0.8,2.3c-0.2,2.2-0.2,8.2-1.3,10.4c0.2,2.3,0.1,3.4-1.1,6.2c-1,1.4-1.6,2.6,0.2,8.2c0.9,4.6-0.7,7.2-0.9,9.9
			c0.2,1.4,0.5,3.1,0.8,4.2c0.7,1.9,0.2,8.9,0.5,10c0.2,1.1,1.6,13,1.4,16.3c-0.2,3.4,0.8,11.8,1.3,14.4c0.5,2.7,0.5,3.8,1.1,4.2
			c0.5,0.4,2.1-0.4,2.6-0.5c0.5-0.2-1.3-1.6-1.6-7.8s0.2-10.1,0-14.4c-0.2-4.3,0.5-18.6,1.2-22c0.8-3.4,1.3-0.5,1.6,1.6
			c0.2,2,0.8,7.6,0.5,9.1c-0.2,1.6-0.1,2.4,0.5,5.3c0.5,2.8,1.7,8.4,3.4,11c1.7,2.6,3.4,7.1,3.8,9.7c0.4,2.5,1.2,4.1,1.9,4.9
			c0.7,0.8,7-1.9,9.7-3.5c2.7-1.7,10.9-7,11.6-7.9c-1.3-0.7-3.9-3.7-5.3-5.6c-1.5-2-1.3-4.1-2.9-6.2c-1.6-2.1-3.9-4.3-4.7-6.1
			c-0.8-1.9-0.7-3.4-1.1-5.8c0.9-1.3,1.6-1.4,4.4,1.6c1.1,1,1.7,3.4,4.2,4.6c1.9,0.5,3.7,1.2,5.3,2.1c2.9,1.9,4.4,2.2,5.5,2.5
			c1.9,0.2,1.9,0.1,0.9-1.1c-0.9-1.2-2.3-2.3-2.8-3.2c-1-1.9-2.2-3.5-3.7-5.1c-2.9-3.4-4.4-4.4-4.2-5.2c0.5-0.4,1.4,0.9,2.9,1.9
			c1.5,1,4.4,2.1,6.5,3.8c2,1.7,2.2,3.1,3.2,3.2c1,0.1,1.3-0.7,0.5-1.4c-0.7-0.7-7.5-6.2-8.9-7.4s-4.9-2-3.8-3.5s3.2,1.2,4.9,1.7
			c1.7,0.5,2.9,0.5,5.5,1.9c2.5,1.4,4.4,2.8,5.8,4.5c1.3,1.7,2.2,1.9,2.8,2.6C116.3,87.9,119.8,74.3,119.8,74.3z M7.9,86.1
			c1.9-1.6,4.3-3.8,6.8-6.2c1.6-1.6,2.8-2.5,3.4-1.9c-0.2,0.9-1,1.8-0.9,2.6c0.5,1.7,2.6,1.1,2.6,1.1c1.3-0.7,2.6-1.4,3.8-2.3
			c2.3-1.6,4.4-3.4,6.3-5.5c1.9-2.1-0.1-2.8-2-1.9c-1.4,0.5-2.5,1.6-3.4,2.9c-1.3,1.6-1.7,2.3-2.4,1.9c-0.8-0.5,0.9-4.1,4.4-6.8
			c2.6-2.1,5-4.5,7-7.2c0.9-1.4,0.7-1.7-1.9-0.7c-2.6,1-6.6,3.5-8.9,3.7c-4.6,1.3-5.3,0.6-8.5,3.7c-2.3,2-10.4,6-10.4,6
			C4,76.5,6.6,86.5,7.9,86.1z M40.6,58.1c0.9-1.2,2.6-2.3-0.5-1.9c-1.9,0.2-3.4,1.6-3.9,3.4C35.2,61.2,37.3,60.6,40.6,58.1z
			 M29,111.6c-0.1-1.3,2.5-12.6,3.7-16.1c1.1-3.5,7.6-12.8,9-15c1.4-2.1-1.2-0.9-4,1.5c-2.8,2.4-8.1,9.3-10.4,12
			c-2.2,2.7-9.2,8.1-9,8.3C20.4,105.7,29,112.9,29,111.6z M53.2,95.3c-0.8,1-2.2,9.3-3.1,11.9s-0.9,4.8-1.4,6.9
			c-0.5,2.1-1.7,4.9-2.2,5.3c0.7,0.8,2.8,1.3,3.8,1.4c1.4-3.4,0.9-5.8,1-8.8c0.1-2.9,2.5-14.7,2.5-14.7C54.1,95,54,94.2,53.2,95.3z"
			/>
		<ellipse class="st2" cx="61.9" cy="62.1" rx="59.8" ry="60"/>
	</g>
</g>
<g id="coors">
	<g>
		<path id="o_1_4_" class="st3" d="M41,90.8c-0.6-0.9-1-1.9-1.3-3.1s-0.2-2.5-0.2-4c0.1-1.4,0.4-2.8,0.9-4.1
			c0.5-1.3,1.1-2.3,1.9-3.2c1.6-1.8,3.7-2.8,6.1-3.2c2.8-0.4,4.9,0.4,6.2,2.3c1.1,1.6,1.6,3.8,1.4,6.7c-0.2,3.2-1.1,5.6-2.8,7.6
			c-1.6,1.8-3.7,2.8-6.1,3.2C44.4,93.5,42.4,92.7,41,90.8z M48.2,77.1c-2.3,0.3-3.7,2.4-3.8,6.2c-0.2,2.9,0.4,4.7,1.6,5.6
			c0.4,0.3,1,0.4,1.6,0.4c2.3-0.2,3.5-2.4,3.8-6.4c0.2-2.8-0.4-4.6-1.6-5.5C49.4,77.1,48.8,77,48.2,77.1z"/>
		<path id="o_2_4_" class="st3" d="M59.7,87.4c-0.6-0.9-1-1.9-1.3-3.1s-0.2-2.5-0.2-4c0.1-1.4,0.4-2.8,0.9-4.1
			c0.5-1.3,1.1-2.3,1.9-3.2c1.6-1.8,3.7-2.8,6.1-3.2c2.8-0.4,4.9,0.4,6.2,2.3c1.1,1.6,1.6,3.8,1.4,6.7c-0.2,3.2-1.1,5.6-2.8,7.6
			c-1.6,1.8-3.7,2.8-6.1,3.2C63.1,90,61,89.2,59.7,87.4z M66.9,73.7c-2.3,0.3-3.7,2.4-3.8,6.2c-0.2,2.9,0.4,4.7,1.6,5.6
			c0.4,0.3,1,0.4,1.6,0.4c2.3-0.2,3.5-2.4,3.8-6.4c0.2-2.8-0.4-4.6-1.6-5.5C68.1,73.7,67.5,73.6,66.9,73.7z"/>
		<path id="r_4_" class="st3" d="M86.3,71.7c-1.4,0.2-2.8,1-3.9,2.4l-0.7,12.9l-4.7,0.6L78,68l4.1-0.5l0.1,2.8
			c0.7-1.3,1.8-2.3,3.4-3.1c0.5-0.2,1.1-0.4,1.6-0.5c0.6-0.1,1.4-0.1,1.8,0c-0.2,0.8-2.2,6.2-1.6,5C87.5,71.7,87.1,71.6,86.3,71.7z"
			/>
		<path id="s_4_" class="st3" d="M103.7,87.4c0.2-1.6,0.4-3.2-0.5-5.1c-0.4-0.7-1.4-1.6-2.8-2.3c0,0-2.5-1.4-3.2-1.7
			c-0.6-0.4-1.2-0.8-1.7-1.2c-0.5-0.4-1.1-0.9-1.6-1.4s-0.9-1.1-1.2-1.8c-0.7-1.4-1-3-0.8-4.7c0.2-1.7,0.5-3.2,1.3-4.5
			c0.7-1.3,1.6-2.3,2.7-3.1c2.1-1.6,4.8-2.5,8.1-2.8c2.8-0.2,5.1,0.1,7.1,0.8c0.5,0.2,0.9,0.4,1.2,0.5c-1,1.3-1.7,2.3-3.5,4.6
			c-2.6-1.5-3.4-1.5-5.1-1.3c-3.3,0.4-4.9,3-5,4.9c-0.1,1.2,0.2,2.1,1.1,2.9c0.6,0.5,1.7,1.3,3.4,2.1c1.7,0.8,3.1,1.6,4.1,2.2
			c1,0.5,2.5,2.3,2.4,2.2c1.5,2,1.9,3.2,2,6.6c0.1,1.2-0.1,2.8-0.5,4.3c6.9-0.1,11.7,0.2,11.7,0.2s-6.3,0.7-12.2,1.1
			c-0.7,1.5-1.6,3.1-2.9,4.2c-2.8,2.3-5.4,2.9-8.5,3.4c-3.4,0.5-6.9-0.1-9.5-1.4c-1.5-0.9-2.9-2-3.8-3.5c-0.2-0.2-15.9,1.5-20.5,2.3
			c-14.3,2.5-29.5,5.3-53.2,14.4c0,0,21.9-11.7,59.3-17.7c5.6-0.8,16.4-1.9,16.5-2l1.5-1.4l1.3,1.1c1.6-0.2,6.5-0.4,7.4-0.4
			c-1.3,0.4-4.2,1.2-5.6,1.8c0.8,0.7,2.5,1.5,3.8,1.6c1.4,0.2,2.8-0.1,4-0.5c0.9-0.4,2.5-1.3,2.9-2.1c0,0,1.1-0.1,3.9-0.9
			c-0.7,0-3.7,0.1-3.7,0.1S103.6,88,103.7,87.4z"/>
		<path id="c_3_" class="st3" d="M39.9,66.7l-1.8,4.7c0,0-1.8-0.2-3.8,0.2c-2,0.3-5.4,1.3-7.8,4c-2.6,3.2-3.2,8.8-3.4,11.4
			c0,1.5,0.2,3.2,0.5,4.3s0.8,2.4,2.4,3.1c1.7,0.5,4.3,0.5,6.4-0.3c2.1-0.9,3.6-1.6,6.9-3.7c0,0-0.1,3.7-0.1,4.2
			c-0.6,0.6-4.3,3.1-8.8,4.3s-9.5,2-12.3-0.9s-2.8-8.6-2.6-10.6c0.2-2,1.2-6.7,3.8-11.3s6.5-6.9,10.1-8.4
			C32.8,66,38.1,66.4,39.9,66.7z"/>
		<path id="o_1_3_" class="st1" d="M41.5,90.9c-0.6-0.9-1-1.9-1.3-3.1s-0.2-2.5-0.2-4c0.1-1.4,0.4-2.8,0.9-4.1
			c0.5-1.3,1.1-2.3,1.9-3.2c1.6-1.8,3.7-2.8,6.1-3.2c2.8-0.4,4.9,0.4,6.2,2.3c1.1,1.6,1.6,3.8,1.4,6.7c-0.2,3.2-1.1,5.6-2.8,7.6
			c-1.6,1.8-3.7,2.8-6.1,3.2C44.9,93.5,42.8,92.8,41.5,90.9z M48.7,77.2c-2.3,0.3-3.7,2.4-3.8,6.2c-0.2,2.9,0.4,4.7,1.6,5.6
			c0.4,0.3,1,0.4,1.6,0.4c2.3-0.2,3.5-2.4,3.8-6.4c0.2-2.8-0.4-4.6-1.6-5.5C49.9,77.2,49.4,77.1,48.7,77.2z"/>
		<path id="o_2_3_" class="st1" d="M60.2,87.4c-0.6-0.9-1-1.9-1.3-3.1s-0.2-2.5-0.2-4c0.1-1.4,0.4-2.8,0.9-4.1
			c0.5-1.3,1.1-2.3,1.9-3.2c1.6-1.8,3.7-2.8,6.1-3.2c2.8-0.4,4.9,0.4,6.2,2.3c1.1,1.6,1.6,3.8,1.4,6.7c-0.2,3.2-1.1,5.6-2.8,7.6
			c-1.6,1.8-3.7,2.8-6.1,3.2C63.6,90.1,61.5,89.3,60.2,87.4z M67.4,73.7c-2.3,0.3-3.7,2.4-3.8,6.2c-0.2,2.9,0.4,4.7,1.6,5.6
			c0.4,0.3,1,0.4,1.6,0.4c2.3-0.2,3.5-2.4,3.8-6.4c0.2-2.8-0.4-4.6-1.6-5.5C68.5,73.8,68,73.7,67.4,73.7z"/>
		<path id="r_3_" class="st1" d="M86.8,71.8c-1.4,0.2-2.8,1-3.9,2.4l-0.7,12.9l-4.7,0.6l1-19.7l4.1-0.5l0.1,2.8
			c0.7-1.3,1.8-2.3,3.4-3.1c0.5-0.2,1.1-0.4,1.6-0.5c0.6-0.1,1.4-0.1,1.8,0c-0.2,0.8-1.4,4.1-1.6,5C88,71.7,87.6,71.7,86.8,71.8z"/>
		<path id="s_3_" class="st1" d="M104.1,87.5c0.2-1.6,0.4-3.2-0.5-5.1c-0.4-0.7-1.4-1.6-2.8-2.3c0,0-2.5-1.4-3.2-1.7
			c-0.6-0.4-1.2-0.8-1.7-1.2c-0.5-0.5-1.1-0.9-1.6-1.4s-0.9-1.1-1.2-1.8c-0.7-1.4-1-3-0.8-4.7c0.2-1.7,0.5-3.2,1.3-4.5
			c0.7-1.3,1.6-2.3,2.7-3.1c2.1-1.6,4.8-2.5,8.1-2.8c2.8-0.2,5.1,0.1,7.1,0.8c0.5,0.2,0.9,0.4,1.2,0.5l-3.5,4.6
			c-0.5-1.1-3.1-1.4-5.1-1.3c-3.3,0.4-4.9,3-5,4.9c-0.1,1.2,0.2,2.1,1.1,2.9c0.6,0.5,1.7,1.3,3.4,2.1c1.7,0.8,3.1,1.6,4.1,2.2
			c1,0.5,2.5,2.3,2.4,2.2c1.5,2,1.9,3.2,2,6.6c0.1,1.2-0.1,2.8-0.5,4.3c6.9-0.1,11.7,0.2,11.7,0.2s-6.3,0.7-12.2,1.1
			c-0.7,1.5-1.6,3.1-2.9,4.2c-2.8,2.3-5.4,2.9-8.5,3.4c-3.4,0.5-6.9-0.1-9.5-1.4c-1.5-0.9-2.9-2-3.8-3.5C86,92.3,70.2,94,65.7,94.9
			c-14.3,2.5-29.5,5.3-53.2,14.4c0,0,21.9-11.7,59.3-17.7c5.6-0.8,16.4-1.9,16.5-2l1.5-1.4l1.3,1.1c1.6-0.2,6.5-0.4,7.4-0.4
			c-1.3,0.4-4.2,1.2-5.6,1.8c0.8,0.7,2.5,1.5,3.8,1.6c1.4,0.2,2.8-0.1,4-0.5c0.9-0.4,2.5-1.3,2.9-2.1c0,0,1.1-0.1,3.9-0.9
			c-0.7,0-3.7,0.1-3.7,0.1S104,88,104.1,87.5z"/>
		<path id="c_2_" class="st1" d="M40.4,66.8l-1.8,4.7c0,0-1.8-0.2-3.8,0.2c-2,0.3-5.4,1.3-7.8,4c-2.6,3.2-3.2,8.8-3.4,11.4
			c0,1.5,0.2,3.2,0.5,4.3s0.8,2.4,2.4,3.1c1.7,0.5,4.3,0.5,6.4-0.3c2.1-0.9,3.6-1.6,6.9-3.7c0,0-0.1,3.7-0.1,4.2
			c-0.6,0.6-4.3,3.1-8.8,4.3c-4.6,1.2-9.5,2-12.3-0.9c-2.9-2.9-2.8-8.6-2.6-10.6c0.2-2,1.2-6.7,3.8-11.3c2.6-4.6,6.5-6.9,10.1-8.4
			C33.3,66.2,38.5,66.5,40.4,66.8z"/>
	</g>
</g>
<g id="text">
	<g id="ESTD_1978_text_backup">
		<path class="st4" d="M23.1,30.6c0,0,35.6-33.2,80,0"/>
		<path class="st1" d="M38.3,16.1c0.2,0.8-0.2,1.7-1,2c-0.8,0.4-1.6-0.1-1.8-0.8c-0.2-0.8,0.2-1.7,0.9-2
			C37.2,14.9,38.1,15.3,38.3,16.1z"/>
		<path class="st1" d="M43.4,11.8l-2,0.7l0.2,1.2l1.9-0.7l0.2,1.3L41.8,15l0.2,1.3l2-0.7l0.2,1.3L41,18l-1.3-6.2l3.4-1.2L43.4,11.8z
			"/>
		<path class="st1" d="M49,9.6l-0.4,1.3c0,0-0.7-0.2-1.3-0.1c-0.5,0.1-0.7,0.4-0.7,0.8c0.1,0.4,0.7,0.5,1.4,0.5
			c0.7,0.1,1.5,0.5,1.6,1.3c0.2,1.5-0.8,2.3-2,2.6c-1.4,0.4-2.4-0.2-2.4-0.2l0.5-1.4c0,0,0.9,0.5,1.6,0.4c0.3-0.1,0.9-0.2,0.8-0.8
			c-0.1-0.5-0.7-0.5-1.5-0.7c-0.8-0.2-1.3-0.7-1.4-1.3C45,10.7,46,9.7,46.9,9.5C48.1,9.1,49,9.6,49,9.6z"/>
		<path class="st1" d="M50.3,8.8l4.3-0.7l0.1,1.3l-1.5,0.2l0.2,5L52,14.9l-0.2-5l-1.5,0.2L50.3,8.8z"/>
		<path class="st1" d="M57.6,7.7c1.6-0.1,2.8,1,2.7,2.6c-0.1,1.7-1.4,2.9-2.9,3.1l-1.6,0.1L56,7.9L57.6,7.7z M57.3,12.3
			c1-0.1,1.6-0.9,1.7-1.8c0.1-0.9-0.5-1.6-1.5-1.6h-0.2l-0.2,3.4H57.3z"/>
		<path class="st1" d="M64.4,8.8l2-1.1L67,7.8l-1,6.2L64.5,14l0.7-4.3l-1.1,0.6L64.4,8.8z"/>
		<path class="st1" d="M70,12.3c0,0-0.2,0.1-0.5,0.1c-0.8-0.1-1.8-1-1.5-2.4c0.4-1.4,1.7-1.9,2.8-1.8c1.4,0.2,2.3,1.2,2,2.3
			c-0.2,1.1-0.7,1.6-1.6,2.3l-1.9,1.6l-1.7-0.2L70,12.3z M70.7,9.3c-0.5-0.1-1.1,0.2-1.2,0.8c-0.2,0.5,0.2,1,0.7,1.1
			c0.5,0.1,1-0.3,1.2-0.8C71.5,9.7,71.2,9.3,70.7,9.3z"/>
		<path class="st1" d="M79.7,10.3c-2,1.6-3.9,3.2-5.2,4.9l-1.6-0.4c1.3-1.5,2.5-3,4.5-4.2L74.8,10l0.4-1.2l4.7,1L79.7,10.3z"/>
		<path class="st1" d="M83.6,14.1c0.5,0.5,0.7,1.1,0.4,1.9c-0.5,1-1.9,1.3-3,1c-1.2-0.4-1.9-1.4-1.5-2.3c0.4-0.8,1-1.1,1.7-1.2
			c-0.4-0.4-0.5-0.9-0.2-1.6c0.4-0.8,1.7-1.1,2.6-0.8c1,0.3,1.7,1.2,1.3,2C84.7,13.7,84.2,14,83.6,14.1z M81.5,15.8
			c0.4,0.2,0.9-0.1,1.1-0.5c0.2-0.4,0-0.8-0.4-1c-0.4-0.2-0.9,0.1-1.1,0.5C80.9,15.3,81.1,15.7,81.5,15.8z M83.3,12
			c-0.4-0.1-0.8,0.1-1,0.4c-0.2,0.4,0,0.7,0.4,0.8c0.4,0.1,0.8-0.1,1-0.4C83.8,12.5,83.7,12.1,83.3,12z"/>
		<path class="st1" d="M89.2,17c-0.4,0.7-1.4,1.1-2.1,0.7c-0.8-0.3-1-1.1-0.7-1.9c0.4-0.7,1.4-1.1,2.1-0.8
			C89.3,15.5,89.6,16.3,89.2,17z"/>
	</g>
</g>
</svg>
