<?xml version="1.0" encoding="utf-8"?>
<!-- Generator: Adobe Illustrator 24.3.0, SVG Export Plug-In . SVG Version: 6.00 Build 0)  -->
<svg version="1.1" id="logo" xmlns="http://www.w3.org/2000/svg" xmlns:xlink="http://www.w3.org/1999/xlink" x="0px" y="0px"
	 viewBox="0 0 130 60.3" style="enable-background:new 0 0 130 60.3;" xml:space="preserve">
<style type="text/css">
	.st0{fill:#B3B3B3;}
	.st1{fill:#1F1F7F;stroke:#FFFFFF;stroke-width:0.6599;stroke-miterlimit:10;}
</style>
<path id="o_1_2_" class="st0" d="M33.7,37.6c-0.7-1-1.2-2.2-1.4-3.5c-0.2-1.4-0.3-2.9-0.2-4.6s0.4-3.3,1-4.8
	c0.6-1.5,1.3-2.7,2.3-3.8c1.9-2.1,4.2-3.3,7.1-3.7c3.3-0.4,5.7,0.5,7.2,2.6c1.3,1.9,1.9,4.5,1.7,7.8c-0.2,3.7-1.3,6.6-3.3,8.9
	c-1.9,2.1-4.2,3.3-7.1,3.7C37.6,40.7,35.2,39.8,33.7,37.6z M42.1,21.6c-2.7,0.3-4.2,2.8-4.5,7.3c-0.2,3.4,0.4,5.5,1.8,6.5
	c0.5,0.3,1.1,0.5,1.9,0.4c2.7-0.3,4.1-2.8,4.4-7.5c0.2-3.3-0.4-5.4-1.8-6.4C43.4,21.7,42.8,21.5,42.1,21.6z"/>
<path id="o_2_2_" class="st0" d="M55.4,33.6c-0.7-1-1.2-2.2-1.4-3.5c-0.2-1.4-0.3-2.9-0.2-4.6c0.1-1.7,0.4-3.3,1-4.8
	c0.6-1.5,1.3-2.7,2.3-3.8c1.9-2.1,4.2-3.3,7.1-3.7c3.3-0.4,5.7,0.5,7.2,2.6c1.3,1.9,1.9,4.5,1.7,7.8c-0.2,3.7-1.3,6.6-3.3,8.9
	c-1.9,2.1-4.2,3.3-7.1,3.7C59.3,36.6,56.9,35.7,55.4,33.6z M63.8,17.6c-2.7,0.3-4.2,2.8-4.5,7.3c-0.2,3.4,0.4,5.5,1.8,6.5
	c0.5,0.3,1.1,0.5,1.9,0.4c2.7-0.3,4.1-2.8,4.4-7.5c0.2-3.3-0.4-5.4-1.8-6.4C65.1,17.7,64.5,17.5,63.8,17.6z"/>
<path id="r_2_" class="st0" d="M86.3,15.3c-1.7,0.2-3.2,1.1-4.5,2.8L81,33.2l-5.4,0.7l1.2-23l4.8-0.6l0.1,3.3c0.8-1.5,2.1-2.7,4-3.5
	c0.6-0.3,1.2-0.4,1.9-0.5c0.7-0.1,1.7-0.1,2.1,0c-0.2,1-1.6,4.8-1.9,5.8C87.7,15.3,87.2,15.2,86.3,15.3z"/>
<path id="s_2_" class="st0" d="M106.4,33.6c0.3-1.9,0.5-3.7-0.5-6c-0.4-0.8-1.6-1.8-3.3-2.7c0,0-2.9-1.6-3.6-2
	c-0.7-0.4-1.4-0.9-2-1.4c-0.6-0.5-1.2-1.1-1.8-1.7c-0.5-0.6-1-1.3-1.4-2.1c-0.8-1.7-1.2-3.5-1-5.5c0.2-2,0.6-3.8,1.5-5.2
	c0.8-1.5,1.9-2.7,3.1-3.6c2.4-1.8,5.6-2.9,9.4-3.2c3.2-0.3,5.9,0,8.2,0.9c0.6,0.2,1,0.4,1.3,0.6l-4,5.3c-0.5-1.3-3.6-1.7-5.9-1.5
	c-3.8,0.5-5.7,3.5-5.9,5.7c0,1.4,0.3,2.5,1.2,3.4c0.7,0.6,2,1.5,3.9,2.5c1.9,1,3.5,1.8,4.7,2.6c1.1,0.7,2.9,2.7,2.8,2.6
	c1.7,2.4,2.2,3.8,2.4,7.7c0.1,1.4-0.1,3.2-0.7,5c8-0.1,13.6,0.3,13.6,0.3s-7.3,0.8-14.2,1.3c-0.7,1.8-1.9,3.5-3.5,4.9
	c-3.2,2.7-6.2,3.4-9.9,3.9c-3.9,0.6-8,0-11-1.7c-1.7-1-3.4-2.4-4.4-4.1c-0.2-0.3-18.5,1.8-23.8,2.7C45.2,45.2,27.5,48.4,0,59
	c0,0,25.4-13.6,68.9-20.6c6.6-1,19.1-2.3,19.2-2.3l1.8-1.7l1.5,1.3c1.8-0.3,7.5-0.5,8.5-0.4c-1.4,0.4-4.8,1.4-6.5,2.1
	c0.9,0.8,2.9,1.8,4.4,1.8c1.7,0.2,3.2,0,4.7-0.7c1-0.5,2.9-1.4,3.4-2.5c0,0,1.2-0.1,4.5-1.1c-0.8,0-4.2,0.1-4.2,0.1
	S106.3,34.3,106.4,33.6z"/>
<path id="c_1_" class="st0" d="M32.4,9.5L30.3,15c0,0-2.1-0.2-4.4,0.2c-2.3,0.3-6.3,1.5-9,4.6c-3.1,3.8-3.8,10.2-4,13.3
	c0,1.8,0.2,3.7,0.5,5c0.3,1.2,0.9,2.8,2.8,3.6c1.9,0.5,4.9,0.5,7.4-0.3c2.5-1.1,4.2-1.9,8-4.3c0,0-0.1,4.4-0.1,4.9
	c-0.7,0.7-4.9,3.6-10.2,5c-5.3,1.4-11,2.3-14.3-1.1s-3.2-10-3-12.3s1.4-7.8,4.4-13.2s7.6-8,11.7-9.8S30.3,9.1,32.4,9.5z"/>
<path id="o_1_1_" class="st1" d="M35.2,38.6c-0.7-1-1.2-2.2-1.4-3.5c-0.2-1.4-0.3-2.9-0.2-4.6c0.1-1.7,0.4-3.3,1-4.8
	c0.6-1.5,1.3-2.7,2.3-3.8c1.9-2.1,4.2-3.3,7.1-3.7c3.3-0.4,5.7,0.5,7.2,2.6c1.3,1.9,1.9,4.5,1.7,7.8c-0.2,3.7-1.3,6.6-3.3,8.9
	c-1.9,2.1-4.2,3.3-7.1,3.7C39.1,41.7,36.7,40.8,35.2,38.6z M43.6,22.6c-2.7,0.3-4.2,2.8-4.5,7.3c-0.2,3.4,0.4,5.5,1.8,6.5
	c0.5,0.3,1.1,0.5,1.9,0.4c2.7-0.3,4.1-2.8,4.4-7.5c0.2-3.3-0.4-5.4-1.8-6.4C44.9,22.7,44.3,22.5,43.6,22.6z"/>
<path id="o_2_1_" class="st1" d="M56.9,34.6c-0.7-1-1.2-2.2-1.4-3.5c-0.2-1.4-0.3-2.9-0.2-4.6c0.1-1.7,0.4-3.3,1-4.8
	c0.6-1.5,1.3-2.7,2.3-3.8c1.9-2.1,4.2-3.3,7.1-3.7c3.3-0.4,5.7,0.5,7.2,2.6c1.3,1.9,1.9,4.5,1.7,7.8c-0.2,3.7-1.3,6.6-3.3,8.9
	c-1.9,2.1-4.2,3.3-7.1,3.7C60.8,37.6,58.4,36.7,56.9,34.6z M65.3,18.6c-2.7,0.3-4.2,2.8-4.5,7.3c-0.2,3.4,0.4,5.5,1.8,6.5
	c0.5,0.3,1.1,0.5,1.9,0.4c2.7-0.3,4.1-2.8,4.4-7.5c0.2-3.3-0.4-5.4-1.8-6.4C66.6,18.6,66,18.5,65.3,18.6z"/>
<path id="r_1_" class="st1" d="M87.8,16.3c-1.7,0.2-3.2,1.1-4.5,2.8l-0.8,15.1L77,34.9l1.2-23l4.8-0.6l0.1,3.3
	c0.8-1.5,2.1-2.7,4-3.5c0.6-0.3,1.2-0.4,1.9-0.5c0.7-0.1,1.7-0.1,2.1,0c-0.2,1-1.6,4.8-1.9,5.8C89.2,16.3,88.7,16.2,87.8,16.3z"/>
<path id="s_1_" class="st1" d="M107.9,34.6c0.3-1.9,0.5-3.7-0.5-6c-0.4-0.8-1.6-1.8-3.3-2.7c0,0-2.9-1.6-3.6-2
	c-0.7-0.4-1.4-0.9-2-1.4c-0.6-0.5-1.2-1.1-1.8-1.7c-0.5-0.6-1-1.3-1.4-2.1c-0.8-1.7-1.2-3.5-1-5.5c0.2-2,0.6-3.8,1.5-5.2
	c0.8-1.5,1.9-2.7,3.1-3.6c2.4-1.8,5.6-2.9,9.4-3.2c3.2-0.3,5.9,0,8.2,0.9c0.6,0.2,1,0.4,1.3,0.6l-4,5.3c-0.5-1.3-3.6-1.7-5.9-1.5
	C104,7,102.2,10,102,12.1c0,1.4,0.3,2.5,1.2,3.4c0.7,0.6,2,1.5,3.9,2.5c1.9,1,3.5,1.8,4.7,2.6c1.1,0.7,2.9,2.7,2.8,2.6
	c1.7,2.4,2.2,3.8,2.4,7.7c0.1,1.4-0.1,3.2-0.7,5c8-0.1,13.6,0.3,13.6,0.3s-7.3,0.8-14.2,1.3c-0.7,1.8-1.9,3.5-3.5,4.9
	c-3.2,2.7-6.2,3.4-9.9,3.9c-3.9,0.6-8,0-11-1.7c-1.7-1-3.4-2.4-4.4-4.1c-0.2-0.3-18.5,1.8-23.8,2.7C46.6,46.2,29,49.4,1.5,60
	c0,0,25.4-13.6,68.9-20.6c6.6-1,19.1-2.3,19.2-2.3l1.8-1.7l1.5,1.3c1.8-0.3,7.5-0.5,8.5-0.4c-1.4,0.4-4.8,1.4-6.5,2.1
	c0.9,0.8,2.9,1.8,4.4,1.8c1.7,0.2,3.2,0,4.7-0.7c1-0.5,2.9-1.4,3.4-2.5c0,0,1.2-0.1,4.5-1.1c-0.8,0-4.2,0.1-4.2,0.1
	S107.8,35.3,107.9,34.6z"/>
<path id="c" class="st1" d="M33.9,10.5L31.8,16c0,0-2.1-0.2-4.4,0.2c-2.3,0.3-6.3,1.5-9,4.6c-3.1,3.8-3.8,10.2-4,13.3
	c0,1.8,0.2,3.7,0.5,5c0.3,1.2,0.9,2.8,2.8,3.6c1.9,0.5,4.9,0.5,7.4-0.3c2.5-1.1,4.2-1.9,8-4.3c0,0-0.1,4.4-0.1,4.9
	c-0.7,0.7-4.9,3.6-10.2,5c-5.3,1.4-11,2.3-14.3-1.1s-3.2-10-3-12.3c0.2-2.3,1.4-7.8,4.4-13.2s7.6-8,11.7-9.8S31.8,10.1,33.9,10.5z"
	/>
</svg>
