<svg xmlns="http://www.w3.org/2000/svg" viewBox="0 0 30 30"><defs><style>.cls-1{fill:#eee8e1;}.cls-2{fill:#24292f;}</style></defs><g id="图层_2" data-name="图层 2"><g id="图层_3" data-name="图层 3"><rect class="cls-1" width="30" height="30"/></g><g id="Icons"><path class="cls-2" d="M26.14,5.35a9.93,9.93,0,0,1-3.09,1.17A4.89,4.89,0,0,0,19.49,5a4.84,4.84,0,0,0-4.87,4.8,4.92,4.92,0,0,0,.12,1.09,13.9,13.9,0,0,1-10-5A4.71,4.71,0,0,0,4,8.29a4.77,4.77,0,0,0,2.17,4A4.86,4.86,0,0,1,4,11.68v.06a4.83,4.83,0,0,0,3.91,4.71,5,5,0,0,1-1.29.16,5.5,5.5,0,0,1-.91-.08,4.88,4.88,0,0,0,4.55,3.33,9.86,9.86,0,0,1-6,2.05A11.31,11.31,0,0,1,3,21.85,14,14,0,0,0,10.52,24,13.66,13.66,0,0,0,24.38,10.35c0-.2,0-.41,0-.62A9.88,9.88,0,0,0,26.8,7.25,9.82,9.82,0,0,1,24,8,4.81,4.81,0,0,0,26.14,5.35Z"/></g></g></svg>