<svg xmlns="http://www.w3.org/2000/svg" viewBox="0 0 30 30"><defs><style>.cls-1{fill:#eee8e1;}.cls-2{fill:#24292f;}</style></defs><g id="图层_2" data-name="图层 2"><g id="图层_3" data-name="图层 3"><rect class="cls-1" width="30" height="30"/></g><g id="Icons"><path class="cls-2" d="M21.42,18.15a.51.51,0,0,0-.42.17,1,1,0,0,0-.12.56v.63H22v-.63a.91.91,0,0,0-.13-.56A.47.47,0,0,0,21.42,18.15Z"/><path class="cls-2" d="M17.23,18.13a.57.57,0,0,0-.25.06.87.87,0,0,0-.25.19v3.87a.9.9,0,0,0,.28.22.78.78,0,0,0,.3.07.39.39,0,0,0,.32-.14.64.64,0,0,0,.11-.42V18.77a.74.74,0,0,0-.13-.48A.48.48,0,0,0,17.23,18.13Z"/><path class="cls-2" d="M22.62,13.2H7.38A4.64,4.64,0,0,0,3,17.92v3.6A4.43,4.43,0,0,0,7.38,26H22.62A4.43,4.43,0,0,0,27,21.52v-3.6A4.64,4.64,0,0,0,22.62,13.2Zm-12,3H9.17v7.19H7.8V16.24H6.39V15h4.19Zm4,7.19H13.37v-.68a2.58,2.58,0,0,1-.7.57,1.4,1.4,0,0,1-.71.2.73.73,0,0,1-.63-.28,1.35,1.35,0,0,1-.21-.83V17.22h1.21V22a.51.51,0,0,0,.08.32.28.28,0,0,0,.25.1.69.69,0,0,0,.34-.13,1.91,1.91,0,0,0,.37-.33V17.22h1.21ZM19,22.15a1.52,1.52,0,0,1-.29,1,1,1,0,0,1-.82.35,1.34,1.34,0,0,1-.64-.14,1.32,1.32,0,0,1-.51-.42v.48H15.5V15h1.23v2.71a1.89,1.89,0,0,1,.52-.43,1.15,1.15,0,0,1,.56-.15,1.07,1.07,0,0,1,.88.4A1.91,1.91,0,0,1,19,18.7Zm4.21-1.68H20.88v1.17a1.41,1.41,0,0,0,.12.69.45.45,0,0,0,.41.18.48.48,0,0,0,.42-.16,1.35,1.35,0,0,0,.12-.71v-.28H23.2v.32a2,2,0,0,1-.46,1.44,1.77,1.77,0,0,1-1.36.48,1.65,1.65,0,0,1-1.28-.51,2,2,0,0,1-.47-1.41V18.89a1.79,1.79,0,0,1,.51-1.32,1.82,1.82,0,0,1,1.33-.5,1.65,1.65,0,0,1,1.28.47,1.87,1.87,0,0,1,.45,1.35Z"/><polygon class="cls-2" points="7.55 2 9.38 7.6 9.38 11.27 10.92 11.27 10.92 7.43 12.71 2 11.14 2 10.19 5.71 10.1 5.71 9.1 2 7.55 2"/><path class="cls-2" d="M13.37,4.73A1.57,1.57,0,0,0,12.82,6V9.54a1.83,1.83,0,0,0,.54,1.39,2,2,0,0,0,1.43.52,2.09,2.09,0,0,0,1.47-.5,1.82,1.82,0,0,0,.53-1.38V6a1.66,1.66,0,0,0-.54-1.28,2,2,0,0,0-1.4-.5A2.23,2.23,0,0,0,13.37,4.73Zm2,1.21V9.67a.59.59,0,0,1-.17.44.63.63,0,0,1-.44.15.57.57,0,0,1-.42-.15.66.66,0,0,1-.14-.44V5.94a.49.49,0,0,1,.15-.36.61.61,0,0,1,.41-.13.68.68,0,0,1,.44.13A.48.48,0,0,1,15.4,5.94Z"/><path class="cls-2" d="M21.8,11.27V4.43H20.43v5.2A2,2,0,0,1,20,10a.78.78,0,0,1-.38.15.33.33,0,0,1-.28-.11.54.54,0,0,1-.09-.35V4.43H17.9v5.72a1.49,1.49,0,0,0,.24.92.85.85,0,0,0,.71.3,1.6,1.6,0,0,0,.79-.22,2.67,2.67,0,0,0,.79-.63v.75Z"/></g></g></svg>